<svg width="40" height="40" viewBox="0 0 40 40" fill="none" xmlns="http://www.w3.org/2000/svg">
<g clip-path="url(#clip0)">
<path d="M12.3421 38.6896C12.2414 38.6896 12.14 38.6701 12.0433 38.6301C11.7513 38.5091 11.561 38.2243 11.561 37.9083V32.8058C8.3843 31.8766 5.525 29.9517 3.45836 27.3387C1.19586 24.4781 0 21.0342 0 17.3792C0 8.51883 7.20852 1.31039 16.0689 1.31039H23.9312C32.7915 1.31039 40 8.51883 40 17.3792C40 20.1159 39.2996 22.8184 37.9746 25.1945C37.7645 25.5713 37.2887 25.7066 36.9118 25.4964C36.535 25.2862 36.3998 24.8104 36.61 24.4336C37.8055 22.2895 38.4375 19.8502 38.4375 17.3792C38.4375 9.38039 31.93 2.87282 23.9311 2.87282H16.0689C8.07 2.87289 1.5625 9.38039 1.5625 17.3792C1.5625 24.0463 6.07336 29.8327 12.5322 31.4507C12.8798 31.5378 13.1236 31.8502 13.1236 32.2085V36.0222L17.0315 32.1144C17.178 31.9679 17.3766 31.8855 17.5839 31.8855H23.9313C26.8845 31.8855 29.7259 31.0037 32.1484 29.3355C32.5038 29.0909 32.9903 29.1805 33.235 29.5359C33.4797 29.8912 33.39 30.3777 33.0347 30.6224C30.3503 32.471 27.2024 33.448 23.9313 33.448H17.9075L12.8948 38.4607C12.7453 38.6102 12.5455 38.6896 12.3421 38.6896Z" fill="#4B4B4B"/>
<path d="M35.2391 28.4484C35.0336 28.4484 34.832 28.3648 34.6867 28.2195C34.5414 28.0741 34.4578 27.8726 34.4578 27.6671C34.4578 27.4616 34.5414 27.2601 34.6867 27.1148C34.832 26.9695 35.0336 26.8859 35.2391 26.8859C35.4445 26.8859 35.6461 26.9695 35.7914 27.1148C35.9367 27.2601 36.0203 27.4616 36.0203 27.6671C36.0203 27.8726 35.9367 28.0741 35.7914 28.2195C35.6461 28.3648 35.4445 28.4484 35.2391 28.4484Z" fill="#4B4B4B"/>
<path d="M20.2424 16.598H20.0377V13.6413C20.0377 13.2098 19.6879 12.8601 19.2564 12.8601C18.8249 12.8601 18.4752 13.2098 18.4752 13.6413V16.598H16.03V13.6413C16.03 13.2098 15.6802 12.8601 15.2487 12.8601C14.8173 12.8601 14.4675 13.2098 14.4675 13.6413V17.3792C14.4675 17.8107 14.8173 18.1605 15.2487 18.1605H18.4752V21.1254C18.4752 21.5569 18.8249 21.9066 19.2564 21.9066C19.6879 21.9066 20.0377 21.5569 20.0377 21.1254V18.1605H20.2424C20.6739 18.1605 21.0237 17.8107 21.0237 17.3792C21.0237 16.9477 20.6738 16.598 20.2424 16.598Z" fill="#4B4B4B"/>
<path d="M11.5184 21.9067H7.77632C7.46039 21.9067 7.17546 21.7163 7.05453 21.4244C6.93359 21.1325 7.00046 20.7964 7.22382 20.573L9.64281 18.154C10.3484 17.4484 10.737 16.5103 10.737 15.5124C10.737 14.9116 10.2481 14.4227 9.64726 14.4227C9.0464 14.4227 8.55749 14.9115 8.55749 15.5124C8.55749 15.9439 8.20773 16.2937 7.77624 16.2937C7.34476 16.2937 6.995 15.9439 6.995 15.5124C6.995 14.05 8.18476 12.8602 9.64726 12.8602C11.1098 12.8602 12.2995 14.0499 12.2995 15.5124C12.2995 16.9276 11.7484 18.2581 10.7477 19.2589L9.66234 20.3443H11.5183C11.9498 20.3443 12.2995 20.6941 12.2995 21.1256C12.2995 21.5571 11.9498 21.9067 11.5184 21.9067Z" fill="#4B4B4B"/>
<path d="M28.481 21.9068C28.3636 21.9068 28.2444 21.8802 28.1323 21.8241C27.7463 21.6312 27.5899 21.1619 27.7829 20.7759L30.9596 14.4225H28.4816C28.0501 14.4225 27.7004 14.0727 27.7004 13.6413C27.7004 13.2098 28.0501 12.86 28.4816 12.86H32.2237C32.4944 12.86 32.7459 13.0002 32.8882 13.2305C33.0305 13.4609 33.0435 13.7484 32.9224 13.9906L29.1804 21.4747C29.0435 21.7485 28.7676 21.9068 28.481 21.9068Z" fill="#4B4B4B"/>
<path d="M22.8391 23.1607C22.7721 23.1607 22.7041 23.152 22.6363 23.1339C22.2196 23.0222 21.9723 22.5938 22.0839 22.177L24.7634 12.177C24.875 11.7603 25.3034 11.513 25.7202 11.6246C26.137 11.7362 26.3843 12.1647 26.2727 12.5815L23.5932 22.5815C23.4997 22.9304 23.184 23.1607 22.8391 23.1607Z" fill="#4B4B4B"/>
</g>
<defs>
<clipPath id="clip0">
<rect width="40" height="40" fill="white"/>
</clipPath>
</defs>
</svg>
