<svg width="37" height="36" viewBox="0 0 37 36" fill="none" xmlns="http://www.w3.org/2000/svg">
<path d="M31.5815 5.27203C28.0873 1.87228 23.4415 0 18.5 0C13.5585 0 8.91266 1.87228 5.41848 5.27203C1.92436 8.67178 0 13.192 0 18C0 22.808 1.92436 27.3282 5.41848 30.728C8.91266 34.1277 13.5585 36 18.5 36C23.4415 36 28.0873 34.1277 31.5815 30.728C35.0756 27.3282 37 22.808 37 18C37 13.192 35.0756 8.67178 31.5815 5.27203ZM18.5 33.8906C9.49447 33.8906 2.16797 26.7621 2.16797 18C2.16797 9.23787 9.49447 2.10938 18.5 2.10938C27.5055 2.10938 34.832 9.23787 34.832 18C34.832 26.7621 27.5055 33.8906 18.5 33.8906Z" fill="#4B4B4B"/>
<path d="M19.6611 16.9453H17.3389C16.0159 16.9453 14.9397 15.8982 14.9397 14.611C14.9397 13.3238 16.016 12.2766 17.3389 12.2766H21.9832C22.5819 12.2766 23.0672 11.8044 23.0672 11.2219C23.0672 10.6395 22.5819 10.1673 21.9832 10.1673H19.584V7.83289C19.584 7.25042 19.0986 6.7782 18.5 6.7782C17.9013 6.7782 17.416 7.25042 17.416 7.83289V10.1673H17.339C14.8206 10.1673 12.7718 12.1608 12.7718 14.611C12.7718 17.0613 14.8207 19.0547 17.339 19.0547H19.6612C20.9841 19.0547 22.0603 20.1019 22.0603 21.3891C22.0603 22.6762 20.9841 23.7234 19.6612 23.7234H15.0169C14.4182 23.7234 13.9329 24.1957 13.9329 24.7781C13.9329 25.3606 14.4182 25.8328 15.0169 25.8328H17.416V28.1673C17.416 28.7497 17.9013 29.222 18.5 29.222C19.0986 29.222 19.584 28.7497 19.584 28.1673V25.8328H19.6611C22.1794 25.8328 24.2282 23.8393 24.2282 21.3891C24.2282 18.9388 22.1794 16.9453 19.6611 16.9453Z" fill="#4B4B4B"/>
</svg>
