<svg width="18" height="18" viewBox="0 0 18 18" fill="none" xmlns="http://www.w3.org/2000/svg">
<path d="M17.8901 16.8296L12.6612 11.6007C13.653 10.3763 14.25 8.81975 14.25 7.12501C14.25 3.1963 11.0537 0 7.12498 0C3.19627 0 0 3.1963 0 7.12501C0 11.0537 3.1963 14.25 7.12501 14.25C8.81975 14.25 10.3763 13.653 11.6007 12.6613L16.8296 17.8901C16.9761 18.0366 17.2134 18.0366 17.3599 17.8901L17.8901 17.3599C18.0366 17.2134 18.0366 16.976 17.8901 16.8296ZM7.12501 12.75C4.02321 12.75 1.50001 10.2268 1.50001 7.12501C1.50001 4.02321 4.02321 1.50001 7.12501 1.50001C10.2268 1.50001 12.75 4.02321 12.75 7.12501C12.75 10.2268 10.2268 12.75 7.12501 12.75Z" fill="white"/>
</svg>
