<svg width="55" height="35" viewBox="0 0 55 35" fill="none" xmlns="http://www.w3.org/2000/svg">
<path d="M51.1498 14.8534L49.7255 9.15632C50.1149 9.07361 50.4071 8.72814 50.4071 8.31424V7.39568C50.4071 5.40128 48.7845 3.77878 46.7902 3.77878H40.3028V1.88407C40.3028 0.902669 39.5044 0.104309 38.523 0.104309H5.45402C4.47262 0.104309 3.67426 0.902669 3.67426 1.88407V17.5C3.67426 17.9756 4.05979 18.3612 4.53546 18.3612C5.01102 18.3612 5.39666 17.9757 5.39666 17.5V1.88407C5.39666 1.85239 5.42233 1.82671 5.45402 1.82671H38.5229C38.5546 1.82671 38.5802 1.85239 38.5802 1.88407V17.5002C38.5802 17.9758 38.9658 18.3614 39.4414 18.3614C39.917 18.3614 40.3026 17.9759 40.3026 17.5002V16.524H50.4614C50.4623 16.524 50.4629 16.5242 50.4637 16.5242C50.4645 16.5242 50.4653 16.5241 50.466 16.5241C51.7161 16.5249 52.7775 17.3454 53.1421 18.476H50.4643C49.9888 18.476 49.6031 18.8616 49.6031 19.3372V21.1744C49.6031 22.6623 50.8136 23.8727 52.3015 23.8727H53.2775V27.6618H51.0257C50.286 25.5259 48.2556 23.9874 45.8714 23.9874C43.4872 23.9874 41.4567 25.5259 40.7171 27.6618H40.3024V21.1743C40.3024 20.6987 39.9169 20.3131 39.4412 20.3131C38.9657 20.3131 38.58 20.6986 38.58 21.1743V27.6616H20.7128C19.9731 25.5257 17.9427 23.9872 15.5584 23.9872C13.1742 23.9872 11.1437 25.5257 10.4041 27.6616H5.45402C5.42233 27.6616 5.39666 27.6359 5.39666 27.6042V25.7096H9.12839C9.60395 25.7096 9.98959 25.3241 9.98959 24.8484C9.98959 24.3727 9.60405 23.9872 9.12839 23.9872H0.861201C0.385645 23.9872 0 24.3727 0 24.8484C0 25.3241 0.385537 25.7096 0.861201 25.7096H3.67437V27.6042C3.67437 28.5856 4.47272 29.384 5.45413 29.384H10.1059C10.1057 29.4031 10.1044 29.4221 10.1044 29.4413C10.1044 32.4487 12.5512 34.8954 15.5584 34.8954C18.5657 34.8954 21.0125 32.4487 21.0125 29.4413C21.0125 29.422 21.0112 29.4031 21.011 29.384H40.4189C40.4187 29.4031 40.4174 29.4221 40.4174 29.4413C40.4174 32.4487 42.8641 34.8954 45.8714 34.8954C48.8787 34.8954 51.3254 32.4487 51.3254 29.4413C51.3254 29.422 51.3241 29.4031 51.3239 29.384H54.1387C54.6142 29.384 54.9999 28.9984 54.9999 28.5228V19.337C55 17.0691 53.3267 15.1848 51.1498 14.8534ZM40.3028 5.50108H46.7902C47.8349 5.50108 48.6848 6.351 48.6848 7.39568V7.45304H40.3028V5.50108ZM40.3028 14.8017V9.17534H47.955L49.3615 14.8017H40.3028ZM15.5584 33.1733C13.5008 33.1733 11.8267 31.4993 11.8267 29.4416C11.8267 27.3838 13.5008 25.7098 15.5584 25.7098C17.6161 25.7098 19.2902 27.3838 19.2902 29.4416C19.2902 31.4993 17.6161 33.1733 15.5584 33.1733ZM45.8716 33.1733C43.8139 33.1733 42.1399 31.4993 42.1399 29.4416C42.1399 27.3838 43.8139 25.7098 45.8716 25.7098C47.9293 25.7098 49.6033 27.3838 49.6033 29.4416C49.6033 31.4993 47.9293 33.1733 45.8716 33.1733ZM53.2777 22.1503H52.3017C51.7635 22.1503 51.3256 21.7124 51.3256 21.1743V20.1982H53.2776V22.1503H53.2777Z" fill="#4B4B4B"/>
<path d="M15.5585 27.6617C14.577 27.6617 13.7787 28.4601 13.7787 29.4415C13.7787 30.4229 14.577 31.2213 15.5585 31.2213C16.5399 31.2213 17.3382 30.4229 17.3382 29.4415C17.3382 28.4601 16.5399 27.6617 15.5585 27.6617Z" fill="#4B4B4B"/>
<path d="M45.8716 27.6617C44.8902 27.6617 44.0918 28.4601 44.0918 29.4415C44.0918 30.4229 44.8902 31.2213 45.8716 31.2213C46.853 31.2213 47.6514 30.4229 47.6514 29.4415C47.6514 28.4601 46.853 27.6617 45.8716 27.6617Z" fill="#4B4B4B"/>
<path d="M35.7672 23.9875H22.9071C22.4315 23.9875 22.0459 24.3731 22.0459 24.8488C22.0459 25.3244 22.4314 25.71 22.9071 25.71H35.7672C36.2427 25.71 36.6284 25.3244 36.6284 24.8488C36.6284 24.3731 36.2428 23.9875 35.7672 23.9875Z" fill="#4B4B4B"/>
<path d="M13.7213 20.3132H2.69833C2.22277 20.3132 1.83713 20.6987 1.83713 21.1744C1.83713 21.65 2.22266 22.0356 2.69833 22.0356H13.7213C14.1969 22.0356 14.5825 21.65 14.5825 21.1744C14.5825 20.6987 14.1969 20.3132 13.7213 20.3132Z" fill="#4B4B4B"/>
<path d="M29.9461 8.62371C29.6099 8.28748 29.0645 8.28748 28.7283 8.62382L21.07 16.282L17.086 12.2981C16.7497 11.9617 16.2044 11.9617 15.8682 12.2981C15.5318 12.6344 15.5318 13.1796 15.8682 13.5159L20.4611 18.1089C20.6292 18.2771 20.8496 18.3611 21.07 18.3611C21.2903 18.3611 21.5108 18.2771 21.6788 18.1089L29.946 9.84166C30.2824 9.50521 30.2824 8.96005 29.9461 8.62371Z" fill="#4B4B4B"/>
</svg>
